Coordinates
version=1
nRows=37
nColumns=38
inDegrees=no

Units are S.I. units (second, meters, Newtons, ...)
If the header above contains a line with 'inDegrees', this indicates whether rotational values are in degrees (yes) or radians (no).

endheader
time	pelvis_tilt	pelvis_list	pelvis_rotation	pelvis_tx	pelvis_ty	pelvis_tz	hip_flexion_r	hip_adduction_r	hip_rotation_r	knee_angle_r	ankle_angle_r	subtalar_angle_r	mtp_angle_r	hip_flexion_l	hip_adduction_l	hip_rotation_l	knee_angle_l	ankle_angle_l	subtalar_angle_l	mtp_angle_l	lumbar_extension	lumbar_bending	lumbar_rotation	arm_flex_r	arm_add_r	arm_rot_r	elbow_flex_r	pro_sup_r	wrist_flex_r	wrist_dev_r	arm_flex_l	arm_add_l	arm_rot_l	elbow_flex_l	pro_sup_l	wrist_flex_l	wrist_dev_l
1.67	-0.140295	1.49655	-1.42661	0.959033	-0.51954	0.940518	-0.0975	0.0590176	-0.15509	0.132454	0.146063	0	0	0.375406	-0.178976	-0.185385	1.04582	0.164413	0	0	-0.221929	-0.00226864	-0.0467135	-0.213402	-0.242741	0.154102	0.623136	0.33914	0	0	-0.111144	-0.31844	0.3566	0.728185	1.25048	0	0
1.68	-0.0884454	1.49466	-1.48291	0.958224	-0.528965	0.94054	-0.119212	0.0568287	-0.149141	0.117007	0.147503	0	0	0.37758	-0.173872	-0.202676	0.996824	0.171095	0	0	-0.225153	-0.00739565	-0.0442479	-0.213441	-0.242833	0.148089	0.62658	0.345118	0	0	-0.11255	-0.318263	0.358903	0.730037	1.24578	0	0
1.69	-0.04435	1.49269	-1.53002	0.957577	-0.538291	0.940289	-0.141244	0.0551523	-0.142997	0.100402	0.148529	0	0	0.378607	-0.168148	-0.219362	0.943397	0.176881	0	0	-0.228393	-0.0119846	-0.0438202	-0.212178	-0.242818	0.142628	0.629906	0.351488	0	0	-0.113921	-0.318306	0.359321	0.732137	1.24089	0	0
1.7	-0.00664568	1.49122	-1.57055	0.957051	-0.547559	0.93975	-0.162085	0.0535471	-0.136662	0.0846305	0.150111	0	0	0.378483	-0.162116	-0.237361	0.885514	0.181511	0	0	-0.231062	-0.0161569	-0.0441752	-0.20991	-0.242889	0.137255	0.633167	0.358167	0	0	-0.115377	-0.317929	0.357149	0.73392	1.23515	0	0
1.71	0.0275736	1.49012	-1.60819	0.956612	-0.556707	0.938949	-0.181018	0.051484	-0.130871	0.0713443	0.153246	0	0	0.376999	-0.155803	-0.257479	0.823275	0.18252	0	0	-0.233493	-0.0201576	-0.044227	-0.206557	-0.243302	0.131954	0.636665	0.365311	0	0	-0.116311	-0.317115	0.354023	0.734844	1.22952	0	0
1.72	0.061208	1.48959	-1.6447	0.956293	-0.565809	0.937865	-0.198371	0.0490427	-0.126791	0.0597607	0.157721	0	0	0.374613	-0.148347	-0.27809	0.75677	0.182346	0	0	-0.235406	-0.0241146	-0.0447013	-0.202832	-0.243389	0.126159	0.64033	0.372565	0	0	-0.116697	-0.316345	0.351046	0.734939	1.22456	0	0
1.73	0.094961	1.48956	-1.67936	0.956205	-0.575031	0.936524	-0.214968	0.0466862	-0.124962	0.049057	0.163021	0	0	0.371428	-0.139049	-0.297426	0.686236	0.182216	0	0	-0.236629	-0.027817	-0.0471398	-0.198753	-0.243022	0.120811	0.643125	0.378708	0	0	-0.117016	-0.315933	0.34828	0.73423	1.22155	0	0
1.74	0.122001	1.48983	-1.70558	0.956381	-0.584318	0.934989	-0.230592	0.0448902	-0.124811	0.0403654	0.169483	0	0	0.367302	-0.128358	-0.314874	0.612222	0.181034	0	0	-0.237433	-0.0305987	-0.0511098	-0.194423	-0.242804	0.116935	0.645477	0.38245	0	0	-0.11681	-0.315688	0.346681	0.732316	1.22143	0	0
1.75	0.151025	1.48932	-1.73324	0.95678	-0.59363	0.933404	-0.2467	0.0426061	-0.125902	0.0325636	0.176642	0	0	0.360145	-0.115009	-0.330035	0.532967	0.177865	0	0	-0.239277	-0.0334491	-0.0555604	-0.1896	-0.242345	0.113288	0.647044	0.386206	0	0	-0.115821	-0.315217	0.34521	0.729226	1.2238	0	0
1.76	0.181618	1.4883	-1.76164	0.95748	-0.602911	0.931767	-0.262649	0.0397755	-0.12796	0.0259535	0.184502	0	0	0.350048	-0.0985815	-0.341134	0.44777	0.171128	0	0	-0.241835	-0.0362037	-0.0605339	-0.184309	-0.242053	0.110365	0.648181	0.390028	0	0	-0.113623	-0.314356	0.343707	0.724857	1.22828	0	0
1.77	0.216302	1.48791	-1.79333	0.958356	-0.612245	0.929978	-0.276785	0.0365498	-0.131161	0.0216537	0.193446	0	0	0.337913	-0.0792092	-0.345128	0.356494	0.159465	0	0	-0.243722	-0.0390994	-0.0661141	-0.178897	-0.241705	0.108333	0.648353	0.394977	0	0	-0.110884	-0.313108	0.340661	0.719457	1.23567	0	0
1.78	0.251399	1.48832	-1.82581	0.959413	-0.621705	0.928001	-0.288792	0.032922	-0.135014	0.0200249	0.203638	0	0	0.323282	-0.0575399	-0.336986	0.259264	0.144367	0	0	-0.244387	-0.0416937	-0.0712717	-0.1736	-0.241807	0.107563	0.647814	0.399109	0	0	-0.107786	-0.311271	0.338624	0.711973	1.24629	0	0
1.79	0.277084	1.48955	-1.84916	0.960528	-0.63145	0.925777	-0.299157	0.0300551	-0.139707	0.0209625	0.214668	0	0	0.306568	-0.0365211	-0.315338	0.160155	0.126941	0	0	-0.243614	-0.0433007	-0.075616	-0.169222	-0.242167	0.106524	0.647121	0.402648	0	0	-0.104972	-0.309332	0.338281	0.703205	1.25994	0	0
1.8	0.278071	1.4922	-1.84821	0.961571	-0.641169	0.923297	-0.306823	0.0294878	-0.144447	0.0253885	0.226723	0	0	0.288818	-0.0194395	-0.28026	0.0624202	0.102725	0	0	-0.242117	-0.0426188	-0.0787723	-0.165414	-0.24263	0.104584	0.646883	0.405834	0	0	-0.101803	-0.307229	0.337601	0.694168	1.27762	0	0
1.81	0.15203	1.50204	-1.71935	0.960786	-0.650618	0.920126	-0.307163	0.0438697	-0.144626	0.0320032	0.23625	0	0	0.269521	-0.0335178	-0.163061	0	0.077869	0	0	-0.235016	-0.0341068	-0.0804242	-0.161128	-0.238828	0.10336	0.642708	0.40734	0	0	-0.0997729	-0.3098	0.337745	0.688534	1.29231	0	0
1.82	0.217677	1.49237	-1.77927	0.963133	-0.660076	0.918502	-0.323398	0.0359308	-0.155007	0.0441995	0.250482	0	0	0.292388	-0.00918846	-0.245815	0	0.0851448	0	0	-0.246569	-0.0395093	-0.0852212	-0.159331	-0.240968	0.102372	0.644971	0.407504	0	0	-0.0929236	-0.305903	0.334987	0.677902	1.31549	0	0
1.83	0.186843	1.49335	-1.74587	0.963736	-0.669786	0.916163	-0.329589	0.0380607	-0.160372	0.0557508	0.262031	0	0	0.303465	-0.00793934	-0.241126	0	0.0883771	0	0	-0.247326	-0.0386235	-0.0869046	-0.156433	-0.23936	0.101795	0.642197	0.408044	0	0	-0.0893951	-0.306335	0.335068	0.671389	1.32234	0	0
1.84	0.171063	1.4929	-1.72974	0.964162	-0.680034	0.914065	-0.33482	0.0375839	-0.169074	0.0724439	0.275488	0	0	0.309475	-0.00564696	-0.235962	0	0.0911174	0	0	-0.248465	-0.0398231	-0.0867679	-0.154476	-0.23718	0.100237	0.638968	0.409839	0	0	-0.0866288	-0.307146	0.33471	0.665191	1.32982	0	0
1.85	0.17031	1.49127	-1.73079	0.964423	-0.690833	0.912205	-0.340124	0.0346791	-0.178653	0.0919393	0.28905	0	0	0.3107	-0.00248467	-0.231175	0	0.0925587	0	0	-0.249541	-0.0430032	-0.0845217	-0.153663	-0.234828	0.0984147	0.635266	0.41191	0	0	-0.0846894	-0.308505	0.334664	0.659733	1.33667	0	0
1.86	0.181033	1.48871	-1.74549	0.964529	-0.702222	0.910557	-0.345656	0.0295589	-0.187608	0.113753	0.302202	0	0	0.307608	0.00112816	-0.226812	0	0.0913378	0	0	-0.250344	-0.0478721	-0.0802343	-0.154116	-0.23225	0.0964483	0.631456	0.413105	0	0	-0.0839045	-0.310454	0.334749	0.655569	1.34231	0	0
1.87	0.199729	1.48599	-1.76928	0.964573	-0.714058	0.909047	-0.350981	0.0229607	-0.195606	0.136832	0.314163	0	0	0.301327	0.00526617	-0.220828	0	0.0870119	0	0	-0.250249	-0.0538161	-0.0748551	-0.155845	-0.229563	0.0944858	0.627883	0.413203	0	0	-0.0844277	-0.31275	0.333798	0.652983	1.34565	0	0
1.88	0.222392	1.48511	-1.79968	0.964658	-0.726547	0.907647	-0.355078	0.0120165	-0.207271	0.159885	0.327256	0	0	0.288152	0.0107525	-0.212439	0	0.0803566	0	0	-0.246731	-0.0599277	-0.0677974	-0.158377	-0.227266	0.0941091	0.623404	0.413411	0	0	-0.0869092	-0.314477	0.331558	0.650949	1.34688	0	0
1.89	0.249643	1.47989	-1.83091	0.964909	-0.738318	0.906591	-0.360677	0.00274648	-0.213333	0.186579	0.335257	0	0	0.296048	0.0127111	-0.215061	0.0337455	0.088065	0	0	-0.249201	-0.0677096	-0.0625086	-0.160356	-0.224786	0.0949864	0.618571	0.414511	0	0	-0.0874902	-0.31713	0.330181	0.649417	1.34778	0	0
1.9	0.271699	1.47913	-1.85618	0.965269	-0.750197	0.905177	-0.35962	-0.00547148	-0.221225	0.217892	0.343234	0	0	0.315058	0.0112911	-0.229304	0.0977119	0.109724	0	0	-0.24652	-0.0738664	-0.0575236	-0.162497	-0.222216	0.0949776	0.611928	0.416895	0	0	-0.0893878	-0.319396	0.3283	0.647788	1.35083	0	0
1.91	0.302367	1.4776	-1.89065	0.965774	-0.762482	0.904049	-0.360378	-0.0147978	-0.225306	0.24669	0.346237	0	0	0.325208	0.0131217	-0.231552	0.141396	0.11694	0	0	-0.24315	-0.0810889	-0.0522656	-0.165055	-0.219607	0.0953134	0.604072	0.417549	0	0	-0.0924885	-0.321335	0.325072	0.646649	1.35181	0	0
1.92	0.343291	1.47615	-1.93537	0.966492	-0.774919	0.903092	-0.359254	-0.0260491	-0.229829	0.27831	0.347574	0	0	0.332039	0.0166667	-0.233615	0.173824	0.108356	0	0	-0.238602	-0.0890543	-0.0470978	-0.167748	-0.217145	0.0961961	0.595567	0.417303	0	0	-0.0960713	-0.322997	0.321139	0.645864	1.35145	0	0
1.93	0.389151	1.4752	-1.98394	0.967454	-0.7874	0.902305	-0.355024	-0.0384877	-0.234072	0.314062	0.346313	0	0	0.337957	0.0200972	-0.237778	0.201655	0.087501	0	0	-0.233278	-0.0969984	-0.0429424	-0.170183	-0.215108	0.0982295	0.58714	0.417391	0	0	-0.0999064	-0.324249	0.316514	0.645011	1.34963	0	0
1.94	0.441438	1.47517	-2.03807	0.96864	-0.799933	0.901605	-0.346125	-0.0521674	-0.238355	0.355867	0.341204	0	0	0.346609	0.0219519	-0.245888	0.235113	0.0720241	0	0	-0.226566	-0.104718	-0.04002	-0.172268	-0.212892	0.0998446	0.578595	0.417538	0	0	-0.104663	-0.325124	0.310906	0.644648	1.34486	0	0
1.95	0.492131	1.47568	-2.0901	0.969906	-0.812633	0.901095	-0.334492	-0.0656113	-0.239949	0.400841	0.329913	0	0	0.35729	0.0217041	-0.253976	0.276222	0.0708674	0	0	-0.218198	-0.111834	-0.0375727	-0.174644	-0.210682	0.104218	0.568425	0.418426	0	0	-0.110287	-0.326541	0.307353	0.645005	1.33431	0	0
1.96	0.532944	1.47319	-2.13212	0.971183	-0.825627	0.90118	-0.324359	-0.080059	-0.240224	0.44785	0.312102	0	0	0.363782	0.0219257	-0.258315	0.31894	0.0778645	0	0	-0.212692	-0.119637	-0.035092	-0.177485	-0.208339	0.11	0.559248	0.414112	0	0	-0.116121	-0.328948	0.305563	0.646661	1.32409	0	0
1.97	0.565087	1.46874	-2.16424	0.972578	-0.838751	0.901767	-0.313036	-0.0957679	-0.241929	0.50015	0.286027	0	0	0.367505	0.0229818	-0.261364	0.361451	0.0864711	0	0	-0.209658	-0.127738	-0.0337505	-0.180669	-0.205657	0.113405	0.553603	0.404614	0	0	-0.121918	-0.332139	0.304707	0.649575	1.31242	0	0
1.98	0.698277	1.49453	-2.30914	0.976212	-0.853604	0.899886	-0.259057	-0.109738	-0.22851	0.568349	0.252053	0	0	0.406094	0.0132876	-0.267551	0.40457	0.092645	0	0	-0.164595	-0.117588	-0.0161896	-0.19497	-0.215116	0.118441	0.54746	0.39548	0	0	-0.129646	-0.313494	0.295251	0.626333	1.31196	0	0
1.99	0.647971	1.46025	-2.24152	0.976332	-0.864366	0.903644	-0.272645	-0.132337	-0.247169	0.624338	0.202499	0	0	0.367232	0.0325961	-0.262572	0.423286	0.0997698	0	0	-0.202344	-0.144159	-0.0368254	-0.185945	-0.200975	0.127787	0.541212	0.388925	0	0	-0.131703	-0.339242	0.305572	0.655681	1.29332	0	0
2	0.713292	1.45701	-2.30169	0.978698	-0.87711	0.904522	-0.243283	-0.154266	-0.250735	0.692126	0.143027	0	0	0.362298	0.0428819	-0.262888	0.436957	0.104612	0	0	-0.19527	-0.153079	-0.0404923	-0.189638	-0.198393	0.133688	0.535863	0.38162	0	0	-0.136583	-0.34415	0.312236	0.660345	1.27058	0	0
2.01	0.954102	1.47381	-2.5494	0.983142	-0.891787	0.903406	-0.177484	-0.181465	-0.240479	0.765151	0.0736929	0	0	0.3791	0.0519771	-0.271091	0.439418	0.113197	0	0	-0.147129	-0.153412	-0.0287689	-0.203058	-0.204511	0.137754	0.527047	0.378106	0	0	-0.144167	-0.329232	0.309327	0.639002	1.26164	0	0
2.02	0.849383	1.45401	-2.42033	0.98395	-0.901615	0.905364	-0.175922	-0.194344	-0.257397	0.825811	0.00291748	0	0	0.354864	0.0655148	-0.247211	0.479742	0.163766	0	0	-0.190387	-0.162539	-0.0482571	-0.209506	-0.190078	0.102656	0.55409	0.395454	0	0	-0.139153	-0.35519	0.322389	0.679146	1.2452	0	0
2.03	0.943591	1.44781	-2.50897	0.986573	-0.914128	0.905819	-0.144162	-0.220797	-0.24805	0.882189	-0.0663444	0	0	0.338259	0.0857211	-0.256996	0.443031	0.12469	0	0	-0.180398	-0.174926	-0.0530689	-0.216088	-0.187309	0.103104	0.555156	0.401038	0	0	-0.145102	-0.362496	0.328204	0.689094	1.23519	0	0
